<?xml version="1.0" encoding="UTF-8"?>
<!DOCTYPE svg PUBLIC "-//W3C//DTD SVG 1.1//EN" "http://www.w3.org/Graphics/SVG/1.1/DTD/svg11.dtd">
<!-- Creator: CorelDRAW -->
<svg xmlns="http://www.w3.org/2000/svg" xml:space="preserve" width="6.30416cm" height="6.30502cm" version="1.1" shape-rendering="geometricPrecision" text-rendering="geometricPrecision" image-rendering="optimizeQuality" fill-rule="evenodd" clip-rule="evenodd"
viewBox="0 0 630.416 630.502"
 xmlns:xlink="http://www.w3.org/1999/xlink"
 xmlns:xodm="http://www.corel.com/coreldraw/odm/2003">
 <g id="Capa_x0020_1">
  <metadata id="CorelCorpID_0Corel-Layer"/>
  <rect fill="#F7F5F3" x="14.608" y="15.805" width="600.001" height="600.003" rx="136.365" ry="136.365"/>
  <g id="_2091964442864">
   <path fill="#FEA912" fill-rule="nonzero" d="M267.23 426.289c-37.07,0 -62.834,9.868 -85.409,35.182l-6.8 -103.297 40.003 0 -14.758 35.394c17.738,-13.439 41.766,-20.423 66.964,-20.423 24.594,0 47.472,6.984 66.36,20.423l-14.626 -35.394 33.449 0 2.395 103.001c-22.142,-21.722 -54.478,-34.886 -87.578,-34.886z"/>
   <rect fill="#FEA912" x="432.914" y="164.593" width="68.096" height="302.418" rx="34.052" ry="34.819"/>
   <rect fill="#BCAFEF" transform="matrix(8.79001 3.96923 -4.26562 9.44641 250.721 153.333)" width="7.221" height="31.363" rx="3.611" ry="3.611"/>
   <rect fill="#7C6CD8" transform="matrix(-8.79001 3.96923 4.26562 9.44641 286.323 153.333)" width="7.221" height="31.363" rx="3.611" ry="3.611"/>
  </g>
 </g>
</svg>
