<?xml version="1.0" encoding="UTF-8"?>
<!DOCTYPE svg PUBLIC "-//W3C//DTD SVG 1.1//EN" "http://www.w3.org/Graphics/SVG/1.1/DTD/svg11.dtd">
<!-- Creator: CorelDRAW -->
<svg xmlns="http://www.w3.org/2000/svg" xml:space="preserve" width="6.30416cm" height="6.30502cm" version="1.1" shape-rendering="geometricPrecision" text-rendering="geometricPrecision" image-rendering="optimizeQuality" fill-rule="evenodd" clip-rule="evenodd"
viewBox="0 0 630.416 630.502"
 xmlns:xlink="http://www.w3.org/1999/xlink"
 xmlns:xodm="http://www.corel.com/coreldraw/odm/2003">
 <g id="Capa_x0020_1">
  <metadata id="CorelCorpID_0Corel-Layer"/>
  <rect fill="#F7F5F3" x="14.608" y="15.805" width="600.001" height="600.003" rx="136.365" ry="136.365"/>
  <g id="_2092412025040">
   <path fill="#BCAFEF" fill-rule="nonzero" d="M255.407 160.334c0,-14.726 14.801,-29.527 29.603,-29.527l155.4 0 0 259.003c0,4.083 -3.314,7.398 -7.401,7.398 -1.513,0 -2.992,-0.465 -4.231,-1.332l-62.368 -43.066c-11.101,-7.401 -25.899,-7.401 -37,0l-62.368 43.069c-1.239,0.864 -2.718,1.329 -4.231,1.329 -4.087,0 -7.401,-3.315 -7.401,-7.398l-0.003 -229.476z"/>
   <path fill="#7C6CD8" fill-rule="nonzero" d="M188.808 263.936c0,-14.728 14.798,-29.527 29.599,-29.527l155.404 0 0 259.003c0,4.081 -3.315,7.395 -7.401,7.395 -1.513,0 -2.993,-0.464 -4.232,-1.331l-62.37 -43.064c-11.101,-7.401 -25.899,-7.401 -37,0l-62.368 43.069c-1.236,0.862 -2.716,1.326 -4.229,1.326 -4.086,0 -7.4,-3.314 -7.4,-7.398l-0.003 -229.473z"/>
   <path fill="#FF7348" fill-rule="nonzero" d="M373.811 357.679l-7.401 -4.869c-11.101,-7.401 -25.899,-7.401 -37,0l-62.368 43.069c-1.239,0.864 -2.718,1.329 -4.231,1.329 -4.087,0 -7.401,-3.315 -7.401,-7.398l-0.003 -155.401 118.404 0 0 123.27z"/>
  </g>
 </g>
</svg>
