<?xml version="1.0" encoding="UTF-8"?>
<!DOCTYPE svg PUBLIC "-//W3C//DTD SVG 1.1//EN" "http://www.w3.org/Graphics/SVG/1.1/DTD/svg11.dtd">
<!-- Creator: CorelDRAW -->
<svg xmlns="http://www.w3.org/2000/svg" xml:space="preserve" width="6.30416cm" height="6.30502cm" version="1.1" shape-rendering="geometricPrecision" text-rendering="geometricPrecision" image-rendering="optimizeQuality" fill-rule="evenodd" clip-rule="evenodd"
viewBox="0 0 630.416 630.502"
 xmlns:xlink="http://www.w3.org/1999/xlink"
 xmlns:xodm="http://www.corel.com/coreldraw/odm/2003">
 <g id="Capa_x0020_1">
  <metadata id="CorelCorpID_0Corel-Layer"/>
  <rect fill="#F7F5F3" x="14.608" y="15.805" width="600.001" height="600.003" rx="136.365" ry="136.365"/>
  <g id="_2056702347776">
   <path fill="#7C6CD8" fill-rule="nonzero" d="M125.11 217.268l378.997 0 0 197.079c0,16.739 -13.577,30.315 -30.319,30.315l-348.678 0.003 0 -227.397z"/>
   <path fill="#BCAFEF" fill-rule="nonzero" d="M155.429 285.488c-16.74,-0.002 -30.316,-13.579 -30.316,-30.321l0 -37.899c0,-16.742 13.576,-30.319 30.319,-30.319l348.675 0 0 68.221c0,16.739 -13.577,30.316 -30.319,30.316l-318.359 0.002z"/>
   <path fill="#191919" fill-rule="nonzero" d="M125.11 247.586l378.997 0 0 30.319c0,16.745 -13.577,30.322 -30.319,30.322l-318.359 0c-16.74,0 -30.316,-13.577 -30.316,-30.319l0 -30.319 -0.003 -0.003z"/>
  </g>
 </g>
</svg>
