<?xml version="1.0" encoding="UTF-8"?>
<!DOCTYPE svg PUBLIC "-//W3C//DTD SVG 1.1//EN" "http://www.w3.org/Graphics/SVG/1.1/DTD/svg11.dtd">
<!-- Creator: CorelDRAW -->
<svg xmlns="http://www.w3.org/2000/svg" xml:space="preserve" width="6.30416cm" height="6.30502cm" version="1.1" shape-rendering="geometricPrecision" text-rendering="geometricPrecision" image-rendering="optimizeQuality" fill-rule="evenodd" clip-rule="evenodd"
viewBox="0 0 630.416 630.502"
 xmlns:xlink="http://www.w3.org/1999/xlink"
 xmlns:xodm="http://www.corel.com/coreldraw/odm/2003">
 <g id="Capa_x0020_1">
  <metadata id="CorelCorpID_0Corel-Layer"/>
  <rect fill="#F7F5F3" x="14.608" y="15.805" width="600.001" height="600.003" rx="136.365" ry="136.365"/>
  <g id="_2056640828016">
   <path fill="#FF7348" fill-rule="nonzero" d="M129.609 315.807c0,-102.171 82.829,-185 185,-185 102.171,0 185,82.826 185,185 0,102.174 -82.826,185 -185,185l-157.591 0c-15.13,-0.007 -27.402,-12.279 -27.402,-27.412l-0.007 -157.588z"/>
   <path fill="#FEA912" fill-rule="nonzero" d="M145.178 498.127c160.181,-20.614 283.954,-157.485 283.954,-323.27 0,-1.462 -0.01,-2.917 -0.026,-4.368 -32.53,-25.691 -72.761,-39.679 -114.207,-39.679 -0.09,0 -0.203,0 -0.29,0 -102.171,-0.003 -185,82.826 -185,184.997l0 157.591c0,10.898 6.359,20.307 15.566,24.729l0.003 0z"/>
  </g>
 </g>
</svg>
