<?xml version="1.0" encoding="UTF-8"?>
<!DOCTYPE svg PUBLIC "-//W3C//DTD SVG 1.1//EN" "http://www.w3.org/Graphics/SVG/1.1/DTD/svg11.dtd">
<!-- Creator: CorelDRAW -->
<svg xmlns="http://www.w3.org/2000/svg" xml:space="preserve" width="6.30416cm" height="6.30502cm" version="1.1" shape-rendering="geometricPrecision" text-rendering="geometricPrecision" image-rendering="optimizeQuality" fill-rule="evenodd" clip-rule="evenodd"
viewBox="0 0 630.416 630.502"
 xmlns:xlink="http://www.w3.org/1999/xlink"
 xmlns:xodm="http://www.corel.com/coreldraw/odm/2003">
 <g id="Capa_x0020_1">
  <metadata id="CorelCorpID_0Corel-Layer"/>
  <rect fill="#F7F5F3" x="14.608" y="15.805" width="600.001" height="600.003" rx="136.365" ry="136.365"/>
  <g id="_2092425084032">
   <path fill="#7C6CD8" fill-rule="nonzero" d="M492.202 179.666c29.948,0.347 46.831,38.065 25.636,59.254l-71.676 71.631 -33.708 22.266 -97.846 -153.151 177.594 0zm-297.172 142.854c-6.329,6.329 -9.895,14.934 -9.895,23.896 0,8.963 3.566,17.568 9.901,23.9l71.75 71.724c6.342,6.339 14.954,9.908 23.922,9.908 8.969,0 17.581,-3.569 23.919,-9.905l-12.782 -32.652 -72.32 -76.574 -34.502 -10.313 0.007 0.016z"/>
   <path fill="#BCAFEF" fill-rule="nonzero" d="M111.378 238.916c-21.195,-21.185 -4.306,-58.903 25.643,-59.25l177.587 0 131.547 130.885c6.342,6.325 9.911,14.937 9.911,23.903 0,8.965 -3.569,17.577 -9.911,23.909l-83.722 83.661c-6.345,6.332 -14.947,9.898 -23.913,9.898 -8.965,0 -17.567,-3.566 -23.909,-9.898l-203.233 -203.108z"/>
   <path fill="#191919" fill-rule="nonzero" d="M314.608 442.037c6.338,-6.335 9.908,-14.947 9.908,-23.912 0,-8.966 -3.57,-17.578 -9.908,-23.91l-71.76 -71.708c-6.338,-6.332 -14.95,-9.898 -23.919,-9.898 -8.968,0 -17.58,3.566 -23.922,9.901l119.601 119.527zm-62.791 -200.21l62.791 -62.161 77.731 77.104c-9.512,-9.505 -22.426,-14.853 -35.875,-14.853 -13.448,0 -26.362,5.348 -35.875,14.847l-26.912 26.887c-5.548,5.55 -13.079,8.67 -20.929,8.67 -7.849,0 -15.381,-3.12 -20.931,-8.667 -5.544,-5.544 -8.663,-13.069 -8.663,-20.912 0,-7.843 3.119,-15.368 8.666,-20.912l-0.003 -0.003z"/>
  </g>
 </g>
</svg>
