<?xml version="1.0" encoding="UTF-8"?>
<!DOCTYPE svg PUBLIC "-//W3C//DTD SVG 1.1//EN" "http://www.w3.org/Graphics/SVG/1.1/DTD/svg11.dtd">
<!-- Creator: CorelDRAW -->
<svg xmlns="http://www.w3.org/2000/svg" xml:space="preserve" width="6.30416cm" height="6.30502cm" version="1.1" shape-rendering="geometricPrecision" text-rendering="geometricPrecision" image-rendering="optimizeQuality" fill-rule="evenodd" clip-rule="evenodd"
viewBox="0 0 630.416 630.502"
 xmlns:xlink="http://www.w3.org/1999/xlink"
 xmlns:xodm="http://www.corel.com/coreldraw/odm/2003">
 <g id="Capa_x0020_1">
  <metadata id="CorelCorpID_0Corel-Layer"/>
  <rect fill="#F7F5F3" x="14.608" y="15.805" width="600.001" height="600.003" rx="136.365" ry="136.365"/>
  <g id="_2091985886944">
   <path fill="#FEA912" fill-rule="nonzero" d="M370.367 214.878c7.552,-7.547 17.809,-11.795 28.486,-11.795 10.677,0 20.934,4.248 28.486,11.795l85.468 85.458c7.552,7.551 11.8,17.801 11.8,28.486 0,10.684 -4.248,20.938 -11.8,28.489l-156.688 156.697c-7.552,7.551 -17.805,11.799 -28.49,11.799 -10.684,0 -20.934,-4.248 -28.485,-11.799l-85.458 -85.469c-7.555,-7.552 -11.803,-17.805 -11.803,-28.49 0,-10.684 4.248,-20.938 11.8,-28.489l156.688 -156.697 -0.004 0.015z"/>
   <path fill="#191919" fill-rule="nonzero" d="M251.821 156.278c6.236,-15.042 20.934,-24.865 37.224,-24.865 5.287,0 10.537,1.047 15.42,3.069l111.668 46.249c15.038,6.229 24.861,20.927 24.861,37.216 0,5.288 -1.047,10.537 -3.069,15.421l-84.799 204.718c-6.229,15.042 -20.931,24.865 -37.221,24.865 -5.279,0 -10.522,-1.047 -15.401,-3.065l-111.668 -46.261c-15.046,-6.228 -24.868,-20.927 -24.868,-37.216 0,-5.288 1.047,-10.537 3.069,-15.42l84.799 -204.719 -0.015 0.008z"/>
   <path fill="#FF7348" fill-rule="nonzero" d="M439.875 227.407c-0.48,2 -1.13,3.999 -1.939,5.961l-84.799 204.718c-6.232,15.042 -20.931,24.865 -37.22,24.865 -5.288,0 -10.534,-1.047 -15.42,-3.069l-92.359 -38.248c-4.089,-6.448 -6.262,-13.939 -6.262,-21.573 0,-10.685 4.251,-20.95 11.807,-28.501l156.688 -156.697c7.548,-7.543 17.805,-11.792 28.482,-11.792 10.677,0 20.934,4.249 28.486,11.796l12.54 12.54 -0.004 0z"/>
   <path fill="#BCAFEF" fill-rule="nonzero" d="M104.611 146.1c0.008,-22.246 18.051,-40.289 40.297,-40.289l120.863 -0.004c22.25,0.004 40.293,18.047 40.293,40.293l0 221.597c-0.004,22.238 -18.047,40.274 -40.289,40.274 0,0 -0.012,0 -0.012,0l-120.851 0.004c0.007,-0.004 -0.004,-0.004 -0.004,-0.004 -22.246,0 -40.289,-18.043 -40.289,-40.289 0,0 0,0 0,0l-0.008 -221.575 0 -0.007z"/>
   <path fill="#7C6CD8" fill-rule="nonzero" d="M304.34 134.418c1.119,3.7 1.72,7.619 1.72,11.678l0 221.597c0.004,22.242 -18.039,40.286 -40.285,40.286l-86.584 0.003c-9.618,-7.642 -15.238,-19.271 -15.238,-31.562 0,-5.295 1.046,-10.537 3.068,-15.428l84.8 -204.718c6.236,-15.053 20.931,-24.873 37.228,-24.873 5.242,0 10.446,1.029 15.295,3.017l-0.004 0z"/>
  </g>
 </g>
</svg>
