<?xml version="1.0" encoding="UTF-8"?>
<!DOCTYPE svg PUBLIC "-//W3C//DTD SVG 1.1//EN" "http://www.w3.org/Graphics/SVG/1.1/DTD/svg11.dtd">
<!-- Creator: CorelDRAW -->
<svg xmlns="http://www.w3.org/2000/svg" xml:space="preserve" width="6.30416cm" height="6.30502cm" version="1.1" shape-rendering="geometricPrecision" text-rendering="geometricPrecision" image-rendering="optimizeQuality" fill-rule="evenodd" clip-rule="evenodd"
viewBox="0 0 630.416 630.502"
 xmlns:xlink="http://www.w3.org/1999/xlink"
 xmlns:xodm="http://www.corel.com/coreldraw/odm/2003">
 <g id="Capa_x0020_1">
  <metadata id="CorelCorpID_0Corel-Layer"/>
  <rect fill="#F7F5F3" x="14.608" y="15.805" width="600.001" height="600.003" rx="136.365" ry="136.365"/>
  <g id="_2093752334400">
   <path fill="#BCAFEF" fill-rule="nonzero" d="M463.007 134.735l-323.005 211.785c-16.245,10.658 -12.819,34.895 5.771,40.858l323.005 103.542c15.196,4.872 30.832,-6.183 30.832,-21.802l0.004 -315.327c0,-18.36 -20.994,-29.285 -36.603,-19.046l-0.004 -0.01z"/>
   <path fill="#7C6CD8" fill-rule="nonzero" d="M487.903 133.863l-159.896 311.934 156.197 50.074c7.595,2.431 15.416,-3.093 15.416,-10.907l-0.006 -334.07c0,0 -1.059,-6.06 -4.133,-10.352 -2.8,-3.919 -7.575,-6.679 -7.575,-6.679l-0.003 0z"/>
   <polygon fill="#191919" fill-rule="nonzero" points="216.691,409.484 487.896,133.809 299.825,500.806 216.687,409.484 "/>
  </g>
 </g>
</svg>
