<?xml version="1.0" encoding="UTF-8"?>
<!DOCTYPE svg PUBLIC "-//W3C//DTD SVG 1.1//EN" "http://www.w3.org/Graphics/SVG/1.1/DTD/svg11.dtd">
<!-- Creator: CorelDRAW -->
<svg xmlns="http://www.w3.org/2000/svg" xml:space="preserve" width="6.30416cm" height="6.30502cm" version="1.1" shape-rendering="geometricPrecision" text-rendering="geometricPrecision" image-rendering="optimizeQuality" fill-rule="evenodd" clip-rule="evenodd"
viewBox="0 0 630.416 630.502"
 xmlns:xlink="http://www.w3.org/1999/xlink"
 xmlns:xodm="http://www.corel.com/coreldraw/odm/2003">
 <g id="Capa_x0020_1">
  <metadata id="CorelCorpID_0Corel-Layer"/>
  <rect fill="#F7F5F3" x="14.608" y="15.805" width="600.001" height="600.003" rx="136.365" ry="136.365"/>
  <g id="_2092416400720">
   <path fill="#7C6CD8" fill-rule="nonzero" d="M395.609 243.808c0,44.727 -36.274,80.998 -81.001,80.998 -44.724,0 -80.999,-36.271 -80.999,-80.998 0,-44.728 36.275,-81.002 80.999,-81.002 44.727,0 81.001,36.274 81.001,81.002z"/>
   <path fill="#FEA912" fill-rule="nonzero" d="M197.607 306.808c0.003,19.876 -16.117,35.996 -35.996,35.996 -19.879,0 -35.999,-16.12 -35.999,-35.996 0,-19.879 16.12,-35.999 35.999,-35.999 19.879,0 35.999,16.12 35.999,35.999l-0.003 0z"/>
   <path fill="#BCAFEF" fill-rule="nonzero" d="M503.609 306.808c-0.003,19.876 -16.123,35.996 -36.002,35.996 -19.879,0 -35.999,-16.12 -35.999,-35.996 0,-19.879 16.12,-35.999 35.999,-35.999 19.879,0 35.999,16.12 35.999,35.999l0.003 0z"/>
   <path fill="#FEA912" fill-rule="nonzero" d="M314.608 360.808l-189.002 0c-19.876,0 -35.996,16.12 -35.996,35.999l0 35.999c0,19.879 16.12,35.999 35.999,35.999l188.999 0.003 0 -108z"/>
   <path fill="#BCAFEF" fill-rule="nonzero" d="M503.609 360.808l-189.001 0 0 108 189.001 0c19.879,-0.003 35.999,-16.123 35.999,-36.002l0 -35.999c0,-19.879 -16.12,-35.999 -35.999,-35.999z"/>
   <path fill="#7C6CD8" fill-rule="nonzero" d="M197.607 360.808l126.001 0c59.643,0 108,48.357 108,108l-126.001 0c-59.643,0 -108,-48.357 -108,-108z"/>
  </g>
 </g>
</svg>
