<?xml version="1.0" encoding="UTF-8"?>
<!DOCTYPE svg PUBLIC "-//W3C//DTD SVG 1.1//EN" "http://www.w3.org/Graphics/SVG/1.1/DTD/svg11.dtd">
<!-- Creator: CorelDRAW -->
<svg xmlns="http://www.w3.org/2000/svg" xml:space="preserve" width="6.30416cm" height="6.30502cm" version="1.1" shape-rendering="geometricPrecision" text-rendering="geometricPrecision" image-rendering="optimizeQuality" fill-rule="evenodd" clip-rule="evenodd"
viewBox="0 0 630.416 630.502"
 xmlns:xlink="http://www.w3.org/1999/xlink"
 xmlns:xodm="http://www.corel.com/coreldraw/odm/2003">
 <g id="Capa_x0020_1">
  <metadata id="CorelCorpID_0Corel-Layer"/>
  <rect fill="#F7F5F3" x="14.608" y="15.805" width="600.001" height="600.003" rx="136.365" ry="136.365"/>
  <g id="_2091985851520">
   <path fill="#FEA912" fill-rule="nonzero" d="M486.63 144.022c7.384,7.39 11.547,17.424 11.547,27.876 0,10.453 -4.163,20.486 -11.551,27.873l-301.032 301.033 -55.739 0.003 0 -55.753 301.035 -301.032c7.384,-7.385 17.417,-11.541 27.87,-11.541 10.452,0 20.485,4.156 27.873,11.544l-0.003 -0.003z"/>
   <path fill="#7C6CD8" fill-rule="nonzero" d="M190.609 228.74l-52.848 -52.845c-5.078,10.655 -7.72,22.329 -7.72,34.136 0,43.777 35.5,79.277 79.277,79.277 6.998,0 13.976,-0.938 20.722,-2.759l202.517 202.508c7.341,7.098 17.171,11.071 27.387,11.071 21.767,0 39.418,-17.65 39.418,-39.417 0,-10.216 -3.971,-20.043 -11.069,-27.388l-202.507 -202.517c1.824,-6.745 2.762,-13.724 2.762,-20.722 0,-43.776 -35.5,-79.277 -79.277,-79.277 -11.807,0 -23.5,2.652 -34.146,7.734l52.845 52.844 -37.357 37.358 -0.004 -0.003z"/>
   <polygon fill="#191919" fill-rule="nonzero" points="314.957,259.981 259.198,315.714 314.947,371.457 370.681,315.714 314.947,259.971 "/>
  </g>
 </g>
</svg>
