<?xml version="1.0" encoding="UTF-8"?>
<!DOCTYPE svg PUBLIC "-//W3C//DTD SVG 1.1//EN" "http://www.w3.org/Graphics/SVG/1.1/DTD/svg11.dtd">
<!-- Creator: CorelDRAW -->
<svg xmlns="http://www.w3.org/2000/svg" xml:space="preserve" width="6.30416cm" height="6.30502cm" version="1.1" shape-rendering="geometricPrecision" text-rendering="geometricPrecision" image-rendering="optimizeQuality" fill-rule="evenodd" clip-rule="evenodd"
viewBox="0 0 630.416 630.502"
 xmlns:xlink="http://www.w3.org/1999/xlink"
 xmlns:xodm="http://www.corel.com/coreldraw/odm/2003">
 <g id="Capa_x0020_1">
  <metadata id="CorelCorpID_0Corel-Layer"/>
  <rect fill="#F7F5F3" x="14.608" y="15.805" width="600.001" height="600.003" rx="136.365" ry="136.365"/>
  <g id="_2092416394768">
   <path fill="#FF7348" fill-rule="nonzero" d="M129.611 421.519c0,-19.468 15.506,-35.236 34.637,-35.236l329.103 0c0,19.467 -15.505,35.236 -34.637,35.236l-329.103 0z"/>
   <path fill="#191919" d="M202.271 200.256c-16.384,23.916 -31.001,54.038 -39.361,74.448l-31.977 -13.548c8.96,-21.875 24.665,-54.415 42.921,-81.047 9.073,-13.249 19.364,-25.891 30.375,-34.964 10.625,-8.746 24.912,-16.587 40.937,-13.744 31.767,5.637 46.663,33.641 53.675,57.481 7.225,24.605 8.297,51.657 8.297,67.516l0 0.15c0,8.687 0,21.282 -0.599,35.969 10.887,-0.61 20.323,0.749 28.497,3.576 1.688,-3.493 3.769,-6.803 6.183,-9.843 8.896,-11.1 22.181,-17.846 39.212,-18.165 15.205,-0.283 25.44,8.826 32.119,14.773 0.583,0.529 1.146,1.022 1.675,1.481 7.242,6.326 16.032,13.725 31.96,20.384 0.46,-0.054 1.146,-0.15 2.114,-0.343 3.084,-0.616 7.152,-1.851 11.937,-3.576 6.359,-2.301 12.176,-4.758 17.573,-7.039 3.223,-1.355 6.299,-2.66 9.259,-3.822l12.539 32.859c-1.604,0.626 -3.965,1.611 -6.749,2.783 -6.888,2.94 -14.024,5.794 -21.042,8.418 -5.411,1.954 -11.304,3.842 -16.828,4.951 -4.544,0.908 -12.578,2.157 -20.007,-0.836 -22.058,-8.88 -34.567,-19.381 -43.343,-27.046 -9.02,-7.868 -9.742,-7.814 -10.438,-7.761l-0.124 0.003c-7.647,0.15 -11.03,2.757 -12.995,5.198 -1.681,2.114 -3.056,5.11 -3.928,8.836 1.921,2.474 3.645,5.048 5.11,7.648 2.634,4.668 5.128,10.658 5.567,17.284 0.486,7.152 -1.498,15.698 -8.66,22.051 -3.492,3.15 -8.044,4.901 -12.755,4.901 -1.145,0 -2.294,-0.103 -3.42,-0.309 -4.351,-0.859 -8.313,-3.117 -11.273,-6.423 -3.719,-4.052 -5.77,-9.163 -6.942,-12.825 -1.805,-5.864 -2.877,-11.947 -3.173,-18.08 -4.062,-2.37 -11.54,-5.111 -24.665,-3.522l-0.15 1.435c-3.33,29.546 -10.149,63.181 -24.912,89.397 -13.424,23.84 -27.239,43.431 -40.487,57.321 -6.615,6.953 -13.451,12.852 -20.393,17.118 -6.809,4.185 -14.81,7.461 -23.433,7.461 -11.99,0 -27.795,-4.095 -37.001,-19.531 -8.73,-14.64 -8.221,-34.267 -1.182,-57.165 14.044,-45.731 47.139,-95.53 100.701,-118.591 4.722,-2.017 9.579,-3.932 14.414,-5.593 0.995,-17.573 1.005,-33.036 1.005,-43.527 0,-14.896 -1.092,-37.82 -6.852,-57.421 -5.99,-20.367 -14.896,-30.815 -26.436,-32.859 -1.295,-0.23 -5.411,0 -13.188,6.413 -7.392,6.086 -15.506,15.698 -23.75,27.721l-0.007 0.004zm65.279 139.07c-39.994,18.543 -66.474,57.428 -78.114,95.308 -5.956,19.381 -3.276,26.666 -2.264,28.368 0.536,0.909 2.051,2.573 7.382,2.573 0,0 0.432,-0.01 1.375,-0.336 0.985,-0.336 2.37,-0.959 4.148,-2.051 3.613,-2.221 8.148,-5.93 13.435,-11.48 10.571,-11.101 22.747,-28.015 35.299,-50.309 9.366,-16.631 15.213,-38.823 18.739,-62.073z"/>
  </g>
 </g>
</svg>
