<?xml version="1.0" encoding="UTF-8"?>
<!DOCTYPE svg PUBLIC "-//W3C//DTD SVG 1.1//EN" "http://www.w3.org/Graphics/SVG/1.1/DTD/svg11.dtd">
<!-- Creator: CorelDRAW -->
<svg xmlns="http://www.w3.org/2000/svg" xml:space="preserve" width="6.30416cm" height="6.30502cm" version="1.1" shape-rendering="geometricPrecision" text-rendering="geometricPrecision" image-rendering="optimizeQuality" fill-rule="evenodd" clip-rule="evenodd"
viewBox="0 0 630.416 630.502"
 xmlns:xlink="http://www.w3.org/1999/xlink"
 xmlns:xodm="http://www.corel.com/coreldraw/odm/2003">
 <g id="Capa_x0020_1">
  <metadata id="CorelCorpID_0Corel-Layer"/>
  <rect fill="#F7F5F3" x="14.608" y="15.805" width="600.001" height="600.003" rx="136.365" ry="136.365"/>
  <g id="_2057170943184">
   <path fill="#FF7348" fill-rule="nonzero" d="M472.208 302.1c0,-94.583 -76.709,-171.293 -171.299,-171.293 -94.592,0 -171.301,76.71 -171.301,171.302 0,61.19 32.666,117.741 85.639,148.335l85.651 -148.352 171.301 0.008 0.009 0z"/>
   <path fill="#BCAFEF" fill-rule="nonzero" d="M162.845 373.851c20.056,74.86 87.941,126.956 165.463,126.956 94.592,0 171.302,-76.71 171.302,-171.302 0,-61.19 -32.646,-117.761 -85.64,-148.359l-85.659 148.365 -165.466 44.34z"/>
   <path fill="#191919" fill-rule="nonzero" d="M300.892 473.4c94.616,0 171.307,-76.701 171.307,-171.308 0,-40.317 -13.929,-77.389 -37.249,-106.649 -30.183,-24.1 -67.733,-37.24 -106.383,-37.24 -0.084,0 -0.186,0 -0.271,0 -94.607,0 -171.302,76.692 -171.302,171.302 0,40.317 13.93,77.394 37.241,106.649 30.207,24.083 67.756,37.243 106.406,37.243 0.085,0 0.166,0 0.251,0l0 0.003z"/>
   <path fill="white" fill-rule="nonzero" d="M181.392 179.387c4.979,-4.857 10.253,-9.405 15.803,-13.63 1.751,0.432 3.429,1.242 4.926,2.436l124.663 99.787c14.029,11.223 15.002,32.314 2.29,45.02 -12.712,12.697 -33.817,11.724 -45.057,-2.29l-99.881 -124.555c-1.549,-1.938 -2.508,-4.295 -2.741,-6.768l-0.003 0z"/>
  </g>
 </g>
</svg>
