<?xml version="1.0" encoding="UTF-8"?>
<!DOCTYPE svg PUBLIC "-//W3C//DTD SVG 1.1//EN" "http://www.w3.org/Graphics/SVG/1.1/DTD/svg11.dtd">
<!-- Creator: CorelDRAW -->
<svg xmlns="http://www.w3.org/2000/svg" xml:space="preserve" width="6.30416cm" height="6.30502cm" version="1.1" shape-rendering="geometricPrecision" text-rendering="geometricPrecision" image-rendering="optimizeQuality" fill-rule="evenodd" clip-rule="evenodd"
viewBox="0 0 630.416 630.502"
 xmlns:xlink="http://www.w3.org/1999/xlink"
 xmlns:xodm="http://www.corel.com/coreldraw/odm/2003">
 <g id="Capa_x0020_1">
  <metadata id="CorelCorpID_0Corel-Layer"/>
  <rect fill="#F7F5F3" x="14.608" y="15.805" width="600.001" height="600.003" rx="136.365" ry="136.365"/>
  <g id="_2056150502304">
   <path fill="#FF7348" fill-rule="nonzero" d="M539.61 262.016c0,-6.616 -6.634,-11.068 -12.583,-8.442l-252 111.626c-3.299,1.489 -5.419,4.782 -5.419,8.405 0,0.013 0,0.03 0,0.044l0 85.951c0,5.085 4.031,9.208 9.001,9.208l225.002 0c19.889,0 35.999,-16.47 35.999,-36.802l0 -169.99z"/>
   <path fill="#BCAFEF" fill-rule="nonzero" d="M467.608 216.969c0,-6.497 -6.47,-10.926 -12.385,-8.476l-270.001 111.544c-3.398,1.422 -5.613,4.752 -5.613,8.439 0,0.014 0,0.031 0,0.044l0 131.131c0,5.058 4.031,9.154 9.001,9.154l242.999 0.003c19.889,0 35.999,-16.389 35.999,-36.611l0 -215.228z"/>
   <path fill="#BCAFEF" fill-rule="nonzero" d="M467.608 279.898l-192.584 85.302c-3.286,1.459 -5.419,4.769 -5.419,8.442l0 85.968c0,5.075 4.031,9.198 9.001,9.198l153.003 0c19.889,0 35.999,-16.399 35.999,-36.611l0 -152.299z"/>
   <path fill="#BCAFEF" fill-rule="nonzero" d="M377.609 171.943c0,-6.48 -6.47,-10.889 -12.385,-8.46l-270.001 111.276c-3.395,1.418 -5.613,4.748 -5.613,8.432 0,0.01 0,0.02 0,0.031l0 176.463c-0.003,5.038 4.028,9.123 8.997,9.123l243.003 0c19.889,0 35.999,-16.351 35.999,-36.523l0 -260.342z"/>
   <path fill="#7C6CD8" fill-rule="nonzero" d="M377.609 240.559l-192.387 79.481c-3.398,1.419 -5.613,4.749 -5.613,8.436 0,0.014 0,0.031 0,0.044l0 131.131c0,5.058 4.031,9.154 9.001,9.154l153 0.003c19.889,0 35.999,-16.351 35.999,-36.523l0 -191.716 0 -0.01z"/>
  </g>
 </g>
</svg>
