<?xml version="1.0" encoding="UTF-8"?>
<!DOCTYPE svg PUBLIC "-//W3C//DTD SVG 1.1//EN" "http://www.w3.org/Graphics/SVG/1.1/DTD/svg11.dtd">
<!-- Creator: CorelDRAW -->
<svg xmlns="http://www.w3.org/2000/svg" xml:space="preserve" width="6.30416cm" height="6.30502cm" version="1.1" shape-rendering="geometricPrecision" text-rendering="geometricPrecision" image-rendering="optimizeQuality" fill-rule="evenodd" clip-rule="evenodd"
viewBox="0 0 630.416 630.502"
 xmlns:xlink="http://www.w3.org/1999/xlink"
 xmlns:xodm="http://www.corel.com/coreldraw/odm/2003">
 <g id="Capa_x0020_1">
  <metadata id="CorelCorpID_0Corel-Layer"/>
  <rect fill="#F7F5F3" x="14.608" y="15.805" width="600.001" height="600.003" rx="136.365" ry="136.365"/>
  <g id="_2092416062256">
   <polygon fill="white" fill-rule="nonzero" points="138.417,245.33 490.797,245.33 490.797,386.28 138.417,386.284 "/>
   <path fill="#FEA912" d="M129.607 166.699c-19.454,0 -35.233,15.779 -35.233,35.237l0 229.047c0,19.455 15.779,35.233 35.237,35.233l184.996 0.004 0 -299.521 -185 0zm24.889 165.017c-11.744,-6.783 -11.744,-23.734 0,-30.516l79.689 -46.004c11.744,-6.783 26.43,1.691 26.43,15.259l0 92.016c0,13.568 -14.686,22.031 -26.43,15.259l-79.689 -46.011 0 -0.003z"/>
   <path fill="#FF7348" d="M499.607 166.699l-185 0 0 299.521 185 0c19.458,-0.004 35.237,-15.782 35.237,-35.24l0 -229.047c0,-19.455 -15.779,-35.234 -35.237,-35.234zm-24.898 165.017c11.753,-6.783 11.753,-23.734 0,-30.516l-79.673 -46.001c-11.743,-6.782 -26.43,1.691 -26.43,15.259l0 92.016c0,13.568 14.687,22.032 26.43,15.259l79.683 -46.011 -0.01 -0.006z"/>
   <path fill="#191919" fill-rule="nonzero" d="M296.987 149.266c0,-10.195 7.885,-18.459 17.62,-18.459 9.736,0 17.62,8.264 17.62,18.455l0 333.086c0,10.195 -7.884,18.459 -17.62,18.459 -9.735,0 -17.62,-8.264 -17.62,-18.456l0 -333.085z"/>
  </g>
 </g>
</svg>
