<?xml version="1.0" encoding="UTF-8"?>
<!DOCTYPE svg PUBLIC "-//W3C//DTD SVG 1.1//EN" "http://www.w3.org/Graphics/SVG/1.1/DTD/svg11.dtd">
<!-- Creator: CorelDRAW -->
<svg xmlns="http://www.w3.org/2000/svg" xml:space="preserve" width="6.30416cm" height="6.30502cm" version="1.1" shape-rendering="geometricPrecision" text-rendering="geometricPrecision" image-rendering="optimizeQuality" fill-rule="evenodd" clip-rule="evenodd"
viewBox="0 0 630.416 630.502"
 xmlns:xlink="http://www.w3.org/1999/xlink"
 xmlns:xodm="http://www.corel.com/coreldraw/odm/2003">
 <g id="Capa_x0020_1">
  <metadata id="CorelCorpID_0Corel-Layer"/>
  <rect fill="#F7F5F3" x="14.608" y="15.805" width="600.001" height="600.003" rx="136.365" ry="136.365"/>
  <g id="_2092431329872">
   <path fill="#7C6CD8" fill-rule="nonzero" d="M368.642 404.718l-74.969 96.078 -159.888 -126.067c-8.478,-6.782 -13.425,-17.057 -13.425,-27.916 0,-8.055 2.731,-15.882 7.734,-22.193l53.167 -66.998 187.384 147.103 -0.003 -0.007z"/>
   <polygon fill="#191919" fill-rule="nonzero" points="292.617,499.964 195.91,422.866 271.092,328.127 368.652,404.718 293.68,300.807 "/>
   <path fill="#BCAFEF" fill-rule="nonzero" d="M292.338 499.751l1.331 1.056 207.634 -266.094c4.891,-6.269 7.554,-14.013 7.554,-21.966 0,-10.862 -4.95,-21.137 -13.435,-27.916l-67.756 -54.024 -156.574 197.32 97.56 76.591 -74.969 96.078 -1.332 -1.045 -0.013 0z"/>
  </g>
 </g>
</svg>
