<?xml version="1.0" encoding="UTF-8"?>
<!DOCTYPE svg PUBLIC "-//W3C//DTD SVG 1.1//EN" "http://www.w3.org/Graphics/SVG/1.1/DTD/svg11.dtd">
<!-- Creator: CorelDRAW -->
<svg xmlns="http://www.w3.org/2000/svg" xml:space="preserve" width="6.30416cm" height="6.30502cm" version="1.1" shape-rendering="geometricPrecision" text-rendering="geometricPrecision" image-rendering="optimizeQuality" fill-rule="evenodd" clip-rule="evenodd"
viewBox="0 0 630.416 630.502"
 xmlns:xlink="http://www.w3.org/1999/xlink"
 xmlns:xodm="http://www.corel.com/coreldraw/odm/2003">
 <g id="Capa_x0020_1">
  <metadata id="CorelCorpID_0Corel-Layer"/>
  <rect fill="#F7F5F3" x="14.608" y="15.805" width="600.001" height="600.003" rx="136.365" ry="136.365"/>
  <g id="_2091963219504">
   <path fill="#BCAFEF" fill-rule="nonzero" d="M177.855 165.807l-30.882 247.037 53.104 0c2.294,29.882 27.214,52.964 57.185,52.964 29.972,0 54.891,-23.082 57.182,-52.967l0.163 0.003c0,29.228 23.706,52.934 52.937,52.934 29.231,0 52.937,-23.706 52.937,-52.937l0.167 0.003c2.291,29.882 27.21,52.964 57.181,52.964 29.972,0 54.891,-23.082 57.182,-52.967l0.167 0.003 0 -8.823 -0.397 -2.408c-0.137,-1.137 -0.31,-2.281 -0.513,-3.408l-0.204 -1.04 -0.176 -0.884 -33.5 -200.983c-2.828,-17.01 -17.553,-29.491 -34.807,-29.491l-287.726 0z"/>
   <path fill="#FEA912" fill-rule="nonzero" d="M217.557 165.807l-17.647 247.037c0.004,29.228 -23.702,52.934 -52.933,52.934 -29.231,0 -52.937,-23.706 -52.937,-52.937l0 -8.823 30.828 -208.097c2.558,-17.296 17.417,-30.114 34.91,-30.114 0,0 0,0 0,0l57.779 0zm185.277 0l17.647 247.037c0,29.228 -23.706,52.934 -52.937,52.934 -29.231,0 -52.937,-23.706 -52.937,-52.937l-0.000 -247.034 88.227 0z"/>
   <path fill="#FF7348" fill-rule="nonzero" d="M199.91 412.844c0.004,29.228 -23.702,52.934 -52.933,52.934 -29.231,0 -52.937,-23.706 -52.937,-52.937l105.87 0.003zm220.571 0c0,29.228 -23.706,52.934 -52.937,52.934 -29.231,0 -52.937,-23.706 -52.937,-52.937l105.874 0.003z"/>
   <path fill="#7C6CD8" fill-rule="nonzero" d="M200.087 412.844c2.321,29.845 27.234,52.907 57.178,52.907 29.945,0 54.858,-23.062 57.176,-52.91l-114.354 0.003zm220.571 0c2.317,29.845 27.23,52.907 57.175,52.907 29.945,0 54.857,-23.062 57.175,-52.91l-114.35 0.003z"/>
  </g>
 </g>
</svg>
