<?xml version="1.0" encoding="UTF-8"?>
<!DOCTYPE svg PUBLIC "-//W3C//DTD SVG 1.1//EN" "http://www.w3.org/Graphics/SVG/1.1/DTD/svg11.dtd">
<!-- Creator: CorelDRAW -->
<svg xmlns="http://www.w3.org/2000/svg" xml:space="preserve" width="6.30416cm" height="6.30502cm" version="1.1" shape-rendering="geometricPrecision" text-rendering="geometricPrecision" image-rendering="optimizeQuality" fill-rule="evenodd" clip-rule="evenodd"
viewBox="0 0 630.416 630.502"
 xmlns:xlink="http://www.w3.org/1999/xlink"
 xmlns:xodm="http://www.corel.com/coreldraw/odm/2003">
 <g id="Capa_x0020_1">
  <metadata id="CorelCorpID_0Corel-Layer"/>
  <rect fill="#F7F5F3" x="14.608" y="15.805" width="600.001" height="600.003" rx="136.365" ry="136.365"/>
  <g id="_2092425586080">
   <path fill="#BCAFEF" fill-rule="nonzero" d="M133.742 165.196c46.612,-45.85 122.206,-45.85 168.817,0l180.87 177.892 -154.365 151.817c-3.858,3.78 -9.048,5.901 -14.451,5.901 -5.4,0 -10.59,-2.121 -14.447,-5.908l-166.424 -163.67c-22.336,-21.82 -34.957,-51.782 -34.957,-83.018 0,-31.236 12.621,-61.198 34.961,-83.014l-0.004 0z"/>
   <path fill="#FEA912" fill-rule="nonzero" d="M495.476 165.196c22.336,21.816 34.957,51.778 34.957,83.014 0,31.236 -12.621,61.198 -34.961,83.01l-166.42 163.685c-3.857,3.78 -9.047,5.901 -14.447,5.901 -5.403,0 -10.593,-2.121 -14.451,-5.908l-154.365 -151.81 180.87 -177.892c46.623,-45.85 122.205,-45.85 168.817,0z"/>
   <path fill="#FF7348" fill-rule="nonzero" d="M314.613 177.056l168.805 166.032 -154.366 151.817c-3.854,3.78 -9.047,5.901 -14.447,5.901 -5.403,0 -10.597,-2.121 -14.451,-5.905l-154.365 -151.802 168.824 -166.043z"/>
  </g>
 </g>
</svg>
