<?xml version="1.0" encoding="UTF-8"?>
<!DOCTYPE svg PUBLIC "-//W3C//DTD SVG 1.1//EN" "http://www.w3.org/Graphics/SVG/1.1/DTD/svg11.dtd">
<!-- Creator: CorelDRAW -->
<svg xmlns="http://www.w3.org/2000/svg" xml:space="preserve" width="6.30416cm" height="6.30502cm" version="1.1" shape-rendering="geometricPrecision" text-rendering="geometricPrecision" image-rendering="optimizeQuality" fill-rule="evenodd" clip-rule="evenodd"
viewBox="0 0 630.416 630.502"
 xmlns:xlink="http://www.w3.org/1999/xlink"
 xmlns:xodm="http://www.corel.com/coreldraw/odm/2003">
 <g id="Capa_x0020_1">
  <metadata id="CorelCorpID_0Corel-Layer"/>
  <rect fill="#F7F5F3" x="14.608" y="15.805" width="600.001" height="600.003" rx="136.365" ry="136.365"/>
  <g id="_2092423921616">
   <path fill="#BCAFEF" fill-rule="nonzero" d="M366.135 348.119l59.994 -231.949c2.108,-7.845 -5.965,-13.54 -12.346,-8.384l-239.019 193.168c-5.309,4.283 -3.083,10.693 3.629,12.49l166.849 46.317c9.156,2.445 18.506,-2.772 20.89,-11.642l0.003 0z"/>
   <path fill="#FF7348" fill-rule="nonzero" d="M263.09 283.496l-60.001 231.948c-2.098,7.845 5.966,13.541 12.347,8.385l239.022 -193.175c5.302,-4.282 3.083,-10.686 -3.638,-12.483l-166.843 -46.317c-9.156,-2.445 -18.506,2.762 -20.89,11.642l0.003 0z"/>
   <path fill="#191919" fill-rule="nonzero" d="M379.037 298.24l-12.892 49.87c-2.385,8.879 -11.744,14.086 -20.891,11.642l-95.057 -26.383 12.903 -49.87c2.384,-8.88 11.734,-14.087 20.884,-11.642l95.053 26.386 0 -0.003z"/>
  </g>
 </g>
</svg>
