<?xml version="1.0" encoding="UTF-8"?>
<!DOCTYPE svg PUBLIC "-//W3C//DTD SVG 1.1//EN" "http://www.w3.org/Graphics/SVG/1.1/DTD/svg11.dtd">
<!-- Creator: CorelDRAW -->
<svg xmlns="http://www.w3.org/2000/svg" xml:space="preserve" width="6.30416cm" height="6.30502cm" version="1.1" shape-rendering="geometricPrecision" text-rendering="geometricPrecision" image-rendering="optimizeQuality" fill-rule="evenodd" clip-rule="evenodd"
viewBox="0 0 630.416 630.502"
 xmlns:xlink="http://www.w3.org/1999/xlink"
 xmlns:xodm="http://www.corel.com/coreldraw/odm/2003">
 <g id="Capa_x0020_1">
  <metadata id="CorelCorpID_0Corel-Layer"/>
  <rect fill="#F7F5F3" x="14.608" y="15.805" width="600.001" height="600.003" rx="136.365" ry="136.365"/>
  <g id="_2091957990864">
   <polygon fill="white" fill-rule="nonzero" points="349.846,280.57 349.846,201.284 279.372,201.284 279.372,280.57 200.086,280.57 200.086,351.047 279.372,351.044 279.372,430.33 349.846,430.33 349.846,351.044 429.132,351.044 429.132,280.567 "/>
   <path fill="#BCAFEF" d="M200.086 351.044l-70.477 0 0 -114.524c0.007,-19.458 15.785,-35.236 35.243,-35.236l114.52 0 0 149.76 -79.286 0zm0 0l0 -35.237c0,-17.62 17.62,-35.237 35.236,-35.237l44.05 0 0 70.477 -79.286 -0.003zm229.046 -70.474l70.477 0 0 114.524c-0.003,19.454 -15.782,35.233 -35.24,35.233l-114.523 0.003 0 -149.76 79.286 0zm0 0l0 35.237c0,17.62 -17.62,35.237 -35.236,35.237l-44.05 0 0 -70.477 79.286 0.003z"/>
   <path fill="#7C6CD8" d="M279.372 201.284l0 -70.477 114.524 0c19.458,0.003 35.236,15.782 35.236,35.24l0 114.523 -149.76 0 0 -79.286zm0 0l35.237 0c17.62,0 35.237,17.62 35.237,35.236l0 44.047 -70.474 0.003 0 -79.286zm70.474 229.046l0 70.477 -114.524 0c-19.454,-0.007 -35.233,-15.785 -35.233,-35.243l-0.003 -114.52 149.76 0 0 79.286zm0 0l-35.237 0c-17.62,0 -35.237,-17.62 -35.237,-35.236l0 -44.047 70.474 -0.003 0 79.286z"/>
  </g>
 </g>
</svg>
