<?xml version="1.0" encoding="UTF-8"?>
<!DOCTYPE svg PUBLIC "-//W3C//DTD SVG 1.1//EN" "http://www.w3.org/Graphics/SVG/1.1/DTD/svg11.dtd">
<!-- Creator: CorelDRAW -->
<svg xmlns="http://www.w3.org/2000/svg" xml:space="preserve" width="6.30416cm" height="6.30502cm" version="1.1" shape-rendering="geometricPrecision" text-rendering="geometricPrecision" image-rendering="optimizeQuality" fill-rule="evenodd" clip-rule="evenodd"
viewBox="0 0 630.416 630.502"
 xmlns:xlink="http://www.w3.org/1999/xlink"
 xmlns:xodm="http://www.corel.com/coreldraw/odm/2003">
 <g id="Capa_x0020_1">
  <metadata id="CorelCorpID_0Corel-Layer"/>
  <rect fill="#F7F5F3" x="14.608" y="15.805" width="600.001" height="600.003" rx="136.365" ry="136.365"/>
  <g id="_2091910316528">
   <path fill="#FF7348" fill-rule="nonzero" d="M240.823 242.021c9.832,-9.826 15.367,-23.183 15.367,-37.093 0,-28.971 -23.493,-52.464 -52.464,-52.464 -28.971,0 -52.464,23.493 -52.464,52.464 0,6.182 1.1,12.33 3.234,18.125 -41.064,70.779 -31.292,162.957 29.305,223.554l0.38 0.38 34.712 -34.713 -0.38 -0.38c-42.134,-42.125 -50.813,-105.032 -26.06,-155.732 3.704,0.817 7.495,1.234 11.29,1.234 13.907,0 27.264,-5.535 37.086,-15.371l-0.006 -0.004z"/>
   <path fill="#FEA912" fill-rule="nonzero" d="M184.177 446.99c51.494,51.211 125.614,65.871 190.058,43.985l-40.598 -40.597c-6.315,0.897 -12.71,1.343 -19.088,1.343 -35.83,0 -70.239,-14.197 -95.652,-39.444l-34.713 34.723 -0.007 -0.01z"/>
   <path fill="#7C6CD8" fill-rule="nonzero" d="M437.309 374.297c-4.402,-1.174 -8.956,-1.777 -13.517,-1.777 -28.971,0 -52.464,23.493 -52.464,52.464 0,28.971 23.493,52.464 52.464,52.464 28.971,0 52.464,-23.493 52.464,-52.464 0,-5.155 -0.764,-10.286 -2.254,-15.217 41.808,-70.786 32.402,-163.441 -28.204,-224.391l-34.713 34.713c41.488,41.814 50.23,103.868 26.237,154.205l-0.013 0.003z"/>
   <path fill="#BCAFEF" fill-rule="nonzero" d="M253.553 141.134l40.34 40.341c6.866,-1.054 13.841,-1.6 20.779,-1.6 36.203,0 70.949,14.497 96.416,40.214l34.713 -34.713 -0.38 -0.38c-51.884,-51.887 -126.941,-66.515 -191.868,-43.862z"/>
  </g>
 </g>
</svg>
