<?xml version="1.0" encoding="UTF-8"?>
<!DOCTYPE svg PUBLIC "-//W3C//DTD SVG 1.1//EN" "http://www.w3.org/Graphics/SVG/1.1/DTD/svg11.dtd">
<!-- Creator: CorelDRAW -->
<svg xmlns="http://www.w3.org/2000/svg" xml:space="preserve" width="6.30416cm" height="6.30502cm" version="1.1" shape-rendering="geometricPrecision" text-rendering="geometricPrecision" image-rendering="optimizeQuality" fill-rule="evenodd" clip-rule="evenodd"
viewBox="0 0 630.416 630.502"
 xmlns:xlink="http://www.w3.org/1999/xlink"
 xmlns:xodm="http://www.corel.com/coreldraw/odm/2003">
 <g id="Capa_x0020_1">
  <metadata id="CorelCorpID_0Corel-Layer"/>
  <rect fill="#F7F5F3" x="14.608" y="15.805" width="600.001" height="600.003" rx="136.365" ry="136.365"/>
  <g id="_2092431344896">
   <path fill="#BCAFEF" fill-rule="nonzero" d="M129.609 166.047c0.007,-19.458 15.785,-35.237 35.243,-35.237l149.757 -0.003 0 149.76c0,19.461 -15.775,35.24 -35.233,35.24l-149.767 0 0 -149.76z"/>
   <path fill="#FF7348" fill-rule="nonzero" d="M129.609 403.9c0.007,-19.461 15.785,-35.24 35.243,-35.24l96.9 0.004 0 96.903c0.004,19.455 -15.775,35.233 -35.233,35.233l-96.91 0.007 0 -96.907z"/>
   <path fill="#7C6CD8" fill-rule="nonzero" d="M314.609 500.807l35.237 0c19.458,-0.007 35.236,-15.785 35.236,-35.243l0.004 -96.9 -35.24 0c-19.458,-0.004 -35.237,15.775 -35.237,35.233l0 96.903 0 0.007z"/>
   <path fill="#FEA912" fill-rule="nonzero" d="M367.466 245.33l0 35.237c0,19.461 15.778,35.24 35.236,35.24l96.907 0 0 -35.237c-0.003,-19.458 -15.782,-35.236 -35.24,-35.236l-96.903 -0.004z"/>
   <path fill="#FEA912" fill-rule="nonzero" d="M367.466 130.807l0 35.237c0,19.461 15.778,35.24 35.236,35.24l96.907 0 0 -35.237c-0.003,-19.458 -15.782,-35.237 -35.24,-35.237l-96.903 -0.003z"/>
   <path fill="#7C6CD8" fill-rule="nonzero" d="M429.132 500.807l35.237 0c19.458,-0.007 35.237,-15.785 35.237,-35.243l0.003 -96.9 -35.24 0c-19.458,-0.004 -35.237,15.775 -35.237,35.233l0 96.903 0 0.007z"/>
  </g>
 </g>
</svg>
