<?xml version="1.0" encoding="UTF-8"?>
<!DOCTYPE svg PUBLIC "-//W3C//DTD SVG 1.1//EN" "http://www.w3.org/Graphics/SVG/1.1/DTD/svg11.dtd">
<!-- Creator: CorelDRAW -->
<svg xmlns="http://www.w3.org/2000/svg" xml:space="preserve" width="6.30416cm" height="6.30502cm" version="1.1" shape-rendering="geometricPrecision" text-rendering="geometricPrecision" image-rendering="optimizeQuality" fill-rule="evenodd" clip-rule="evenodd"
viewBox="0 0 630.416 630.502"
 xmlns:xlink="http://www.w3.org/1999/xlink"
 xmlns:xodm="http://www.corel.com/coreldraw/odm/2003">
 <g id="Capa_x0020_1">
  <metadata id="CorelCorpID_0Corel-Layer"/>
  <rect fill="#F7F5F3" x="14.608" y="15.805" width="600.001" height="600.003" rx="136.365" ry="136.365"/>
  <g id="_2092425079856">
   <path fill="#191919" fill-rule="nonzero" d="M151.112 500.807c-4.591,-3.964 -9.064,-8.151 -13.302,-12.493 -6.111,-6.255 -5.64,-16.197 0.547,-22.391l218.434 -218.434 11.911 11.911c3.156,3.163 4.931,7.448 4.931,11.912 0,4.463 -1.775,8.748 -4.928,11.901l-217.593 217.594z"/>
   <path fill="#FEA912" fill-rule="nonzero" d="M207.954 263.87l-71.429 -71.429c39.434,-39.437 92.999,-61.634 148.801,-61.634 16.747,0 33.472,2.004 49.736,5.959l-127.105 127.104 -0.003 0z"/>
   <path fill="#FF7348" fill-rule="nonzero" d="M207.945 263.864l127.104 -127.105c37.474,9.096 71.798,28.392 99.082,55.675l-148.811 148.812 -77.375 -77.376 0 -0.006z"/>
   <path fill="#BCAFEF" fill-rule="nonzero" d="M356.733 412.669l-71.413 -71.423 148.795 -148.805c24.946,24.936 43.261,55.84 53.149,89.697l-130.531 130.531z"/>
   <path fill="#7C6CD8" fill-rule="nonzero" d="M356.743 412.669l130.54 -130.541c5.596,19.162 8.472,39.122 8.472,59.111 0,49.993 -17.829,98.396 -50.225,136.445 -6.019,7.073 -16.734,7.038 -23.317,0.465l-65.47 -65.471 0 -0.009z"/>
  </g>
 </g>
</svg>
