<?xml version="1.0" encoding="UTF-8"?>
<!DOCTYPE svg PUBLIC "-//W3C//DTD SVG 1.1//EN" "http://www.w3.org/Graphics/SVG/1.1/DTD/svg11.dtd">
<!-- Creator: CorelDRAW -->
<svg xmlns="http://www.w3.org/2000/svg" xml:space="preserve" width="6.30416cm" height="6.30502cm" version="1.1" shape-rendering="geometricPrecision" text-rendering="geometricPrecision" image-rendering="optimizeQuality" fill-rule="evenodd" clip-rule="evenodd"
viewBox="0 0 630.416 630.502"
 xmlns:xlink="http://www.w3.org/1999/xlink"
 xmlns:xodm="http://www.corel.com/coreldraw/odm/2003">
 <g id="Capa_x0020_1">
  <metadata id="CorelCorpID_0Corel-Layer"/>
  <rect fill="#F7F5F3" x="14.608" y="15.805" width="600.001" height="600.003" rx="136.365" ry="136.365"/>
  <g id="_2092431356224">
   <path fill="#BCAFEF" fill-rule="nonzero" d="M129.609 315.807c0.007,-19.458 15.785,-35.237 35.243,-35.237l61.664 0 0 220.237 -96.907 0 0 -185z"/>
   <path fill="#FEA912" fill-rule="nonzero" d="M323.419 166.047c0,-19.468 16.528,-35.237 36.911,-35.237l139.279 -0.003 0 334.76c0,19.468 -16.528,35.237 -36.911,35.237l-139.279 0.003 0 -334.76z"/>
   <path fill="#FF7348" fill-rule="nonzero" d="M226.516 245.923c0,-19.788 16.524,-35.829 36.911,-35.829l139.275 0 0 254.884c0,19.784 -16.524,35.829 -36.911,35.829l-139.275 0 0 -254.884z"/>
   <path fill="#FF7348" fill-rule="nonzero" d="M323.419 500.807l42.372 0c20.383,0 36.911,-16.042 36.911,-35.829l0 -254.884 -79.283 0 0 290.713z"/>
   <path fill="#BCAFEF" fill-rule="nonzero" d="M226.516 500.807l44.003 -0.017c0.003,-0.003 0.003,-0.003 0.003,-0.003 19.478,0 35.274,-15.789 35.284,-35.267l-0.007 -184.95 -79.283 0 0 220.237z"/>
  </g>
 </g>
</svg>
