<?xml version="1.0" encoding="UTF-8"?>
<svg xmlns="http://www.w3.org/2000/svg" viewBox="265 265 470 470" width="470" height="470">
<path fill-rule="nonzero" fill="rgb(48.599243%, 42.399597%, 84.698486%)" fill-opacity="1" d="M 718.664062 430.925781 C 711.980469 409.441406 702.214844 389.3125 689.867188 371.03125 C 665.179688 334.480469 630.152344 305.394531 589.109375 288.046875 C 570.550781 280.199219 550.773438 274.746094 530.082031 272.027344 C 531.246094 273.820312 532.285156 275.773438 533.140625 277.929688 L 684.773438 634.234375 C 695.207031 620.015625 704.027344 604.558594 710.96875 588.128906 C 722.546875 560.757812 728.945312 530.730469 728.953125 499.023438 C 728.953125 475.238281 725.339844 452.410156 718.664062 430.925781 M 500.730469 371.421875 L 414.589844 573.9375 C 437.390625 557.003906 468.308594 548.171875 500.730469 548.171875 C 532.359375 548.171875 561.828125 557.003906 586.132812 573.9375 Z M 431.898438 280.351562 C 410.421875 287.035156 390.292969 296.800781 372.011719 309.152344 C 335.453125 333.839844 306.375 368.867188 289.019531 409.910156 C 277.453125 437.285156 271.046875 467.316406 271.046875 499.023438 C 271.046875 522.804688 274.648438 545.636719 281.335938 567.117188 C 288.011719 588.59375 297.773438 608.734375 310.125 627.003906 C 311.773438 629.457031 313.480469 631.859375 315.214844 634.234375 L 466.855469 277.929688 C 467.609375 275.785156 468.582031 273.839844 469.6875 272.054688 C 456.710938 273.773438 444.085938 276.566406 431.898438 280.351562 M 632.394531 685.832031 C 630.933594 686.863281 629.464844 687.894531 627.988281 688.894531 C 609.707031 701.242188 589.578125 711.007812 568.09375 717.683594 C 546.605469 724.367188 523.777344 727.972656 499.996094 727.972656 C 468.296875 727.972656 438.257812 721.5625 410.890625 709.996094 C 395.546875 703.511719 381.050781 695.386719 367.617188 685.84375 C 396.148438 643.464844 444.390625 615.171875 500.730469 615.171875 C 555.636719 615.171875 603.8125 643.453125 632.394531 685.832031 "></path>
</svg>