<?xml version="1.0" encoding="UTF-8"?>
<svg xmlns="http://www.w3.org/2000/svg" viewBox="190 265 620 475" width="620" height="475">
<path fill-rule="nonzero" fill="rgb(91.4%, 89.8%, 87.5%)" fill-opacity="1" d="M 436.546875 514.082031 C 443.6875 514.082031 450.339844 516.078125 455.832031 519.902344 L 436.546875 474.171875 L 417.09375 519.902344 C 422.246094 516.078125 429.226562 514.082031 436.546875 514.082031 M 436.546875 529.210938 C 423.242188 529.210938 411.933594 536.195312 405.628906 546.503906 C 404.296875 549.164062 401.46875 550.824219 398.8125 550.824219 C 397.644531 550.824219 396.8125 550.496094 395.8125 550.164062 C 391.984375 548.660156 390.324219 544.007812 391.820312 540.183594 L 428.894531 453.0625 C 430.070312 449.738281 433.226562 448.40625 436.550781 448.40625 C 439.542969 448.40625 442.535156 449.738281 443.867188 453.0625 L 480.941406 540.183594 C 482.4375 544.007812 480.769531 548.660156 476.949219 550.164062 C 476.113281 550.488281 475.117188 550.824219 473.957031 550.824219 C 471.292969 550.824219 468.46875 549.164062 467.140625 546.503906 C 460.824219 536.195312 449.515625 529.210938 436.546875 529.210938 "></path><path fill-rule="nonzero" fill="rgb(91.4%, 89.8%, 87.5%)" fill-opacity="1" d="M 518.027344 488.476562 C 504.890625 488.476562 494.085938 499.28125 494.085938 512.585938 C 494.085938 526.050781 504.894531 536.863281 518.027344 536.863281 C 531.496094 536.863281 542.300781 526.050781 542.300781 512.585938 C 542.300781 499.289062 531.496094 488.476562 518.027344 488.476562 Z M 480.117188 512.585938 C 480.117188 491.632812 497.074219 474.675781 518.027344 474.679688 C 528 474.679688 536.652344 479 542.300781 485.652344 L 542.300781 455.382812 C 542.300781 451.566406 545.292969 448.402344 549.285156 448.402344 C 553.109375 448.402344 556.101562 451.566406 556.101562 455.382812 L 556.101562 512.585938 C 556.101562 533.867188 539.144531 550.828125 518.027344 550.828125 C 497.082031 550.828125 480.117188 533.867188 480.117188 512.585938 "></path><path fill-rule="nonzero" fill="rgb(91.4%, 89.8%, 87.5%)" fill-opacity="1" d="M 599.324219 474.675781 C 617.945312 474.675781 633.074219 489.808594 633.074219 508.425781 L 633.074219 543.84375 C 633.074219 547.660156 630.078125 550.824219 626.253906 550.824219 C 622.433594 550.824219 619.273438 547.496094 619.273438 543.84375 L 619.273438 508.425781 C 619.273438 497.289062 610.128906 488.476562 599.324219 488.476562 C 588.511719 488.476562 579.539062 497.289062 579.539062 508.425781 L 579.539062 543.84375 C 579.539062 547.660156 576.378906 550.824219 572.554688 550.824219 C 568.734375 550.824219 565.574219 547.496094 565.574219 543.84375 L 565.574219 455.382812 C 565.574219 451.566406 568.726562 448.402344 572.554688 448.402344 C 576.378906 448.402344 579.539062 451.566406 579.539062 455.382812 L 579.539062 483.320312 C 584.359375 477.996094 591.511719 474.675781 599.324219 474.675781 "></path><path fill-rule="nonzero" fill="rgb(91.4%, 89.8%, 87.5%)" fill-opacity="1" d="M 677.265625 488.476562 C 663.800781 488.476562 652.996094 499.289062 652.996094 512.585938 C 652.996094 526.054688 663.800781 536.863281 677.265625 536.863281 C 690.40625 536.863281 701.210938 526.054688 701.210938 512.585938 C 701.210938 499.289062 690.40625 488.476562 677.265625 488.476562 M 677.265625 474.675781 C 698.21875 474.675781 715.175781 491.632812 715.175781 512.585938 C 715.175781 533.867188 698.21875 550.828125 677.265625 550.828125 C 656.15625 550.828125 639.195312 533.867188 639.195312 512.585938 C 639.195312 491.632812 656.152344 474.675781 677.265625 474.675781 "></path><path fill-rule="nonzero" fill="rgb(91.4%, 89.8%, 87.5%)" fill-opacity="1" d="M 719.097656 512.585938 C 719.097656 491.632812 736.054688 474.675781 757.003906 474.679688 C 767.644531 474.679688 776.960938 478.835938 783.941406 485.648438 C 786.765625 488.3125 786.765625 492.800781 783.941406 495.628906 C 782.609375 496.789062 780.949219 497.621094 779.117188 497.621094 C 777.289062 497.621094 775.464844 496.789062 774.132812 495.464844 C 769.808594 490.96875 763.65625 488.476562 757.003906 488.476562 C 743.871094 488.476562 732.898438 499.28125 732.898438 512.585938 C 732.898438 526.050781 743.871094 536.863281 757.003906 536.863281 C 763.828125 536.863281 769.808594 534.199219 774.132812 529.878906 C 775.628906 528.382812 777.453125 527.882812 779.117188 527.882812 C 780.949219 527.882812 782.613281 528.382812 783.941406 529.878906 C 786.765625 532.375 786.765625 536.871094 783.941406 539.691406 C 776.953125 546.503906 767.644531 550.828125 757.003906 550.828125 C 736.054688 550.828125 719.097656 533.867188 719.097656 512.585938 "></path><path fill-rule="nonzero" fill="rgb(91.4%, 89.8%, 87.5%)" fill-opacity="1" d="M 794.566406 543.628906 L 794.566406 544.988281 L 795.878906 544.988281 C 796.21875 544.988281 796.535156 544.671875 796.535156 544.308594 C 796.535156 543.945312 796.21875 543.628906 795.878906 543.628906 Z M 793.84375 542.320312 L 795.878906 542.320312 C 796.984375 542.320312 797.890625 543.222656 797.890625 544.308594 C 797.890625 545.007812 797.527344 545.574219 796.984375 545.9375 L 797.800781 547.316406 C 797.980469 547.628906 797.84375 548.039062 797.527344 548.242188 C 797.460938 548.308594 797.324219 548.332031 797.234375 548.332031 C 797.007812 548.332031 796.78125 548.195312 796.648438 547.992188 L 795.675781 546.320312 L 794.566406 546.320312 L 794.566406 547.628906 C 794.566406 548.015625 794.226562 548.308594 793.84375 548.308594 C 793.503906 548.308594 793.210938 548.015625 793.210938 547.628906 L 793.210938 542.996094 C 793.210938 542.636719 793.503906 542.320312 793.84375 542.320312 Z M 795.382812 540.789062 C 792.886719 540.789062 790.875 542.824219 790.875 545.351562 C 790.875 547.824219 792.886719 549.808594 795.382812 549.808594 C 797.882812 549.808594 799.917969 547.824219 799.917969 545.351562 C 799.917969 542.824219 797.882812 540.789062 795.382812 540.789062 M 795.382812 539.292969 C 798.707031 539.292969 801.414062 542 801.414062 545.351562 C 801.414062 548.648438 798.707031 551.355469 795.382812 551.355469 C 792.085938 551.355469 789.378906 548.648438 789.378906 545.351562 C 789.378906 542 792.085938 539.292969 795.382812 539.292969 "></path><path fill-rule="nonzero" fill="rgb(48.599243%, 42.399597%, 84.698486%)" fill-opacity="1" d="M 353.351562 475.902344 C 351.03125 468.441406 347.640625 461.457031 343.355469 455.109375 C 334.78125 442.421875 322.625 432.324219 308.375 426.304688 C 301.933594 423.578125 295.070312 421.683594 287.886719 420.742188 C 288.289062 421.363281 288.652344 422.042969 288.949219 422.792969 L 341.585938 546.476562 C 345.207031 541.542969 348.269531 536.175781 350.679688 530.472656 C 354.699219 520.972656 356.917969 510.546875 356.921875 499.539062 C 356.921875 491.285156 355.667969 483.359375 353.351562 475.902344 M 277.695312 455.246094 L 247.792969 525.546875 C 255.710938 519.667969 266.441406 516.601562 277.695312 516.601562 C 288.675781 516.601562 298.90625 519.667969 307.34375 525.546875 Z M 253.804688 423.632812 C 246.347656 425.953125 239.359375 429.34375 233.015625 433.628906 C 220.324219 442.199219 210.230469 454.359375 204.203125 468.605469 C 200.191406 478.109375 197.964844 488.53125 197.964844 499.539062 C 197.964844 507.796875 199.214844 515.722656 201.535156 523.179688 C 203.855469 530.632812 207.242188 537.625 211.53125 543.96875 C 212.105469 544.816406 212.695312 545.652344 213.296875 546.476562 L 265.9375 422.792969 C 266.199219 422.046875 266.539062 421.371094 266.921875 420.75 C 262.417969 421.347656 258.035156 422.316406 253.804688 423.632812 M 323.402344 564.390625 C 322.894531 564.746094 322.386719 565.105469 321.871094 565.453125 C 315.527344 569.738281 308.539062 573.128906 301.082031 575.445312 C 293.621094 577.765625 285.699219 579.015625 277.441406 579.015625 C 266.4375 579.015625 256.011719 576.792969 246.511719 572.777344 C 241.183594 570.527344 236.152344 567.707031 231.488281 564.390625 C 241.394531 549.679688 258.140625 539.859375 277.695312 539.859375 C 296.757812 549.679688 313.480469 549.679688 323.402344 564.390625 "></path>
</svg>